<?xml version="1.0" encoding="UTF-8" standalone="no"?>
<!DOCTYPE svg PUBLIC "-//W3C//DTD SVG 1.1//EN" "http://www.w3.org/Graphics/SVG/1.1/DTD/svg11.dtd">
<svg width="100%" height="100%" viewBox="0 0 1080 1080" version="1.1" xmlns="http://www.w3.org/2000/svg" xmlns:xlink="http://www.w3.org/1999/xlink" xml:space="preserve" xmlns:serif="http://www.serif.com/" style="fill-rule:evenodd;clip-rule:evenodd;stroke-linejoin:round;stroke-miterlimit:2;">
    <g transform="matrix(39.3335,0,0,39.3335,-13318.2,-1971.71)">
        <path d="M351.494,57L349.292,57C349.179,57 349.07,57.038 348.981,57.108L345.569,59.808C345.21,60.092 345,60.525 345,60.984L345,75.5C345,76.328 345.672,77 346.5,77L357.5,77C358.328,77 359,76.328 359,75.5L359,60.5C359,60.347 358.93,60.203 358.81,60.108L357.038,58.706C357.307,58.395 357.579,58.048 357.851,57.66C358.958,56.078 359.577,54.425 359.647,53.178C359.703,52.186 359.407,51.425 358.835,51.024C358.262,50.624 357.447,50.606 356.533,50.997C355.385,51.489 354.043,52.637 352.936,54.219C352.28,55.155 351.794,56.115 351.494,57ZM357,69.5C357,69.224 356.776,69 356.5,69L347.501,69C347.225,69 347.001,69.224 347.001,69.5L347.001,74.5C347.001,74.776 347.225,75 347.501,75L356.5,75C356.776,75 357,74.776 357,74.5L357,69.5ZM348.5,74L348.001,74L348.001,70L356,70L356,74L355.5,74L355.5,70.5L354.5,70.5L354.5,74L353.5,74L353.5,71L352.5,71L352.5,74L351.5,74L351.5,72L350.5,72L350.5,74L349.5,74L349.5,71L348.5,71L348.5,74ZM357.038,58.706L356.253,58.085C356.511,57.789 356.771,57.458 357.032,57.086C358.013,55.684 358.587,54.228 358.649,53.122C358.681,52.546 358.593,52.076 358.261,51.844C357.929,51.611 357.457,51.689 356.927,51.917C355.909,52.353 354.737,53.39 353.755,54.792C353.237,55.532 352.834,56.288 352.558,57L354.708,57C354.821,57 354.93,57.038 355.019,57.108L356.253,58.085C355.394,59.071 354.559,59.678 353.823,60.177C353.51,59.483 352.811,59 352,59C350.897,59 350.001,59.896 350.001,61C350.001,62.103 350.897,62.999 352,62.999C353.01,62.999 353.846,62.25 353.981,61.277C354.871,60.674 355.935,59.983 357.038,58.706ZM352,60C352.552,60 353,60.448 353,61C353,61.551 352.552,61.999 352,61.999C351.449,61.999 351.001,61.551 351.001,61C351.001,60.448 351.449,60 352,60Z"/>
    </g>
    <g transform="matrix(1.07169e-16,-1.75021,1.75021,1.07169e-16,-107.925,1201.37)">
        <text x="80.505px" y="94.954px" style="font-family:'ArialMT', 'Arial', sans-serif;font-size:24px;">Created by Liez <tspan x="253.942px 269.95px " y="94.954px 94.954px ">Ar</tspan>t</text>
        <text x="80.505px" y="119.739px" style="font-family:'ArialMT', 'Arial', sans-serif;font-size:24px;">from Noun Project</text>
    </g>
</svg>
